<svg version="1.2" xmlns="http://www.w3.org/2000/svg" viewBox="0 0 900 900" width="900" height="900">
	<title>New Project</title>
	<style>
		.s0 { fill: #000000 } 
	</style>
	<path id="Shape 1" class="s0" d="m1081.4 790.5v5h-1272.8v-5z"/>
	<path id="Shape 1 copy" class="s0" d="m1081.4 691.5v5h-1272.8v-5z"/>
	<path id="Shape 1 copy 2" class="s0" d="m1081.4 590.5v5h-1272.8v-5z"/>
	<path id="Shape 1 copy 3" class="s0" d="m1087.4 491.5v5h-1272.8v-5z"/>
	<path id="Shape 1 copy 4" class="s0" d="m1081.4 390.5v5h-1272.8v-5z"/>
	<path id="Shape 1 copy 5" class="s0" d="m1081.4 289.5v5h-1272.8v-5z"/>
	<path id="Shape 1 copy 6" class="s0" d="m1081.4 193.5v5h-1272.8v-5z"/>
	<path id="Shape 1 copy 7" class="s0" d="m1094.4 92.5v5h-1272.8v-5z"/>
	<path id="Shape 1 copy 8" class="s0" d="m797.5-186.4h5v1272.8h-5z"/>
	<path id="Shape 1 copy 9" class="s0" d="m698.5-186.4h5v1272.8h-5z"/>
	<path id="Shape 1 copy 10" class="s0" d="m597.5-186.4h5v1272.8h-5z"/>
	<path id="Shape 1 copy 11" class="s0" d="m498.5-192.4h5v1272.8h-5z"/>
	<path id="Shape 1 copy 12" class="s0" d="m397.5-186.4h5v1272.8h-5z"/>
	<path id="Shape 1 copy 13" class="s0" d="m296.5-186.4h5v1272.8h-5z"/>
	<path id="Shape 1 copy 14" class="s0" d="m200.5-186.4h5v1272.8h-5z"/>
	<path id="Shape 1 copy 15" class="s0" d="m99.5-199.4h5v1272.8h-5z"/>
</svg>